:SAMPLES-PER-SECOND 30
:FRAME-RANGE 1-4244
:FULLY-SPECIFIED
:DEGREES
3184
root  -9.272 36.3726 93.5466 -165.814 -46.5948 179.632
RightUpLeg  -32.1575 -23.7505 -5.6416
RightLeg  45.7837 -13.945 -15.1355
RightFoot  -20.7403 0.365345 6.15102
RightToes  -1.33073e-015 0 -3.6325e-017
Spine  25.0786 0.191057 -4.84367
Spine1  1.25766 0.367936 -3.66368
HEad  -18.6099 -28.5941 19.954
LeftShoulder1  2.27442 -7.84282 -13.6932
LeftArm  -3.32733 -22.0238 -45.0817
LeftForeArm  32.1469 7.87262 -12.9242
LeftHand  -0.0159761 6.02136 2.5499
RightShoulder  2.45941 5.35736 22.2267
RightArm  -32.1045 18.9852 57.9423
RightForeArm  69.9309 -4.15219 -3.25525
RightHand  -0.402283 -2.96398 -18.8875
LeftUpLeg  -43.2123 16.7989 1.61583
LeftLeg  26.9936 15.4811 8.74525
LeftFoot  6.26668 0.987268 -6.61669
LeftToes  2.72522e-012 8.43823e-011 6.24977e-012
3185
root  -8.56181 36.4405 93.2387 -165.022 -43.5001 178.566
RightUpLeg  -30.0595 -22.5565 -6.57143
RightLeg  40.7587 -13.2976 -12.2491
RightFoot  -18.5419 1.03368 18.2975
RightToes  -1.33073e-015 0 -3.6325e-017
Spine  23.3615 0.193037 -4.96552
Spine1  1.24715 0.323537 -3.49868
HEad  -17.8193 -27.7877 19.9886
LeftShoulder1  2.21361 -7.58211 -13.6163
LeftArm  -3.0701 -20.144 -45.8894
LeftForeArm  34.0433 7.85912 -13.0793
LeftHand  -0.0352859 4.7825 2.17202
RightShoulder  2.45534 5.15406 22.8987
RightArm  -32.299 18.6439 57.5211
RightForeArm  69.8591 -4.14865 -3.29142
RightHand  -0.396301 -3.08185 -19.5444
LeftUpLeg  -41.4492 17.2059 2.77986
LeftLeg  24.5421 18.4456 9.29926
LeftFoot  8.67309 1.31935 -7.76941
LeftToes  2.72522e-012 8.43823e-011 6.24977e-012
3186
root  -7.77206 36.4772 92.9046 -165.22 -40.9036 177.938
RightUpLeg  -31.3823 -23.6723 -5.48957
RightLeg  41.4716 -10.2589 -9.84182
RightFoot  -19.4446 0.941113 15.0787
RightToes  -1.33073e-015 0 -3.6325e-017
Spine  22.8435 0.1848 -5.01585
Spine1  0.788312 0.163202 -2.6858
HEad  -17.7515 -26.9066 20.1665
LeftShoulder1  2.18554 -7.16643 -14.2098
LeftArm  -2.91804 -18.8092 -46.5204
LeftForeArm  35.2426 7.83736 -13.1328
LeftHand  -0.0263839 5.43082 2.2477
RightShoulder  2.42362 5.00242 23.0535
RightArm  -32.2664 18.2306 57.2577
RightForeArm  69.0586 -4.20135 -3.1662
RightHand  -0.411849 -3.05793 -20.122
LeftUpLeg  -38.7574 15.9047 5.38222
LeftLeg  22.3829 22.766 10.0468
LeftFoot  11.1755 1.70922 -8.91782
LeftToes  2.72522e-012 8.43823e-011 6.24977e-012
3187
root  -7.04628 36.5895 92.5478 -167.005 -37.7963 178.717
RightUpLeg  -30.9938 -23.1555 -3.88833
RightLeg  40.9537 -8.20972 -7.83516
RightFoot  -19.6585 0.829774 13.2009
RightToes  -1.33073e-015 0 -3.6325e-017
Spine  22.7216 0.109576 -4.02366
Spine1  0.909434 0.250591 -2.24181
HEad  -17.8085 -25.5226 20.0062
LeftShoulder1  2.25597 -6.83921 -15.7092
LeftArm  -2.71973 -17.5609 -46.3589
LeftForeArm  34.5092 7.85262 -13.1239
LeftHand  -0.027755 5.32645 2.46987
RightShoulder  2.42699 5.11769 22.6734
RightArm  -31.9055 18.4823 57.1785
RightForeArm  68.4084 -4.25893 -2.97827
RightHand  -0.412057 -3.10873 -20.5788
LeftUpLeg  -34.8515 13.7511 9.69362
LeftLeg  20.7401 28.0128 11.0135
LeftFoot  12.5974 2.11735 -10.332
LeftToes  2.72522e-012 8.43823e-011 6.24977e-012
3188
root  -6.37568 36.847 92.1515 -168.352 -34.8231 179.379
RightUpLeg  -29.7962 -21.7575 -2.27959
RightLeg  39.0764 -7.45322 -6.70744
RightFoot  -19.3802 0.651159 11.1119
RightToes  -1.33073e-015 0 -3.6325e-017
Spine  21.7504 -0.0872756 -3.26809
Spine1  1.64668 -0.099679 -1.14276
HEad  -17.2806 -23.9874 20.2711
LeftShoulder1  2.23595 -6.54553 -16.2113
LeftArm  -2.75874 -15.7548 -46.9761
LeftForeArm  32.941 7.85784 -12.9064
LeftHand  -0.0289062 5.25771 2.91773
RightShoulder  2.31704 4.66007 22.9581
RightArm  -31.8083 19.0346 57.5035
RightForeArm  69.3246 -4.2084 -3.06708
RightHand  -0.387565 -3.2003 -20.1328
LeftUpLeg  -30.8942 13.0901 12.4728
LeftLeg  17.4104 29.8367 10.1725
LeftFoot  11.2948 2.23884 -11.5026
LeftToes  2.72522e-012 8.43823e-011 6.24977e-012
3189
root  -5.68932 37.057 91.7168 -169.483 -31.7661 179.618
RightUpLeg  -28.5064 -19.5516 -1.15786
RightLeg  37.6899 -7.12701 -6.13019
RightFoot  -19.2301 0.519576 9.41198
RightToes  -1.33073e-015 0 -3.6325e-017
Spine  21.0917 -0.258106 -3.12794
Spine1  2.00193 -0.426562 -0.390716
HEad  -16.2186 -22.4047 20.7099
LeftShoulder1  2.22124 -6.35366 -16.5368
LeftArm  -3.58764 -14.1685 -48.0405
LeftForeArm  32.4657 7.77923 -12.349
LeftHand  -0.0368297 4.91414 3.24637
RightShoulder  2.32445 4.59452 23.3128
RightArm  -31.125 19.3363 57.3994
RightForeArm  69.0145 -4.29186 -2.65596
RightHand  -0.368122 -3.27414 -19.7602
LeftUpLeg  -27.3209 12.9736 14.334
LeftLeg  14.8557 28.8259 9.19649
LeftFoot  6.73885 2.11699 -13.514
LeftToes  2.72522e-012 8.43823e-011 6.24977e-012
3190
root  -5.09213 37.3355 91.2775 -170.379 -28.6589 179.791
RightUpLeg  -26.7404 -16.3936 -0.265419
RightLeg  35.5085 -7.45636 -5.93031
RightFoot  -18.7648 0.404312 8.18456
RightToes  -1.33073e-015 0 -3.6325e-017
Spine  20.4813 -0.558299 -2.74229
Spine1  2.43687 -0.812217 0.0373578
HEad  -15.5547 -20.5845 21.1732
LeftShoulder1  2.14982 -6.01611 -16.6092
LeftArm  -3.29596 -13.1303 -49.329
LeftForeArm  30.7265 7.77896 -12.1854
LeftHand  -0.044335 4.70414 3.78928
RightShoulder  2.2956 4.38875 23.7456
RightArm  -30.7174 19.825 57.5572
RightForeArm  69.5119 -4.30223 -2.48616
RightHand  -0.350706 -3.38404 -19.8266
LeftUpLeg  -23.8838 12.459 15.5287
LeftLeg  12.1292 25.9691 8.14556
LeftFoot  0.833144 1.55178 -14.5355
LeftToes  2.72522e-012 8.43823e-011 6.24977e-012
3191
root  -4.55543 37.6556 90.8447 -171.016 -25.5669 179.707
RightUpLeg  -24.7643 -13.4791 0.367957
RightLeg  32.8289 -7.68876 -5.55053
RightFoot  -17.9531 0.271748 6.80686
RightToes  -1.33073e-015 0 -3.6325e-017
Spine  19.6989 -0.827292 -2.25329
Spine1  3.13065 -1.08228 0.169168
HEad  -15.2445 -18.8769 21.2048
LeftShoulder1  2.16032 -6.00277 -16.768
LeftArm  -3.85428 -12.9411 -50.8951
LeftForeArm  30.8336 7.63478 -11.7371
LeftHand  -0.0520533 4.42978 3.8049
RightShoulder  2.26587 4.27 23.8228
RightArm  -29.8905 20.08 57.7075
RightForeArm  69.2669 -4.40252 -1.9622
RightHand  -0.309346 -3.63909 -19.9518
LeftUpLeg  -21.2225 11.1812 15.9031
LeftLeg  10.3378 22.4049 7.90172
LeftFoot  -3.92255 0.719356 -10.7107
LeftToes  2.72522e-012 8.43823e-011 6.24977e-012
3192
root  -4.08274 37.9075 90.4177 -171.31 -22.4305 179.141
RightUpLeg  -23.1348 -11.5357 0.520013
RightLeg  30.6691 -7.14445 -4.78733
RightFoot  -17.4494 0.173112 5.45907
RightToes  -1.33073e-015 0 -3.6325e-017
Spine  18.9325 -0.917921 -2.10004
Spine1  3.55972 -1.27282 0.432613
HEad  -14.3355 -17.364 20.3495
LeftShoulder1  2.18899 -6.1074 -16.8189
LeftArm  -3.39725 -13.1923 -52.5594
LeftForeArm  30.7228 6.47105 -11.8388
LeftHand  -0.0563858 4.30935 3.92144
RightShoulder  2.25239 4.25466 23.698
RightArm  -29.135 20.1094 57.8466
RightForeArm  68.877 -4.50506 -1.45552
RightHand  -0.262093 -3.93439 -20.2095
LeftUpLeg  -19.5352 9.52528 15.6176
LeftLeg  10.636 18.1865 7.20006
LeftFoot  -5.76106 0.400904 -7.51128
LeftToes  2.72522e-012 8.43823e-011 6.24977e-012
3193
root  -3.66415 38.1322 89.9922 -171.454 -19.5257 178.734
RightUpLeg  -21.627 -10.0525 0.774186
RightLeg  28.4657 -6.21203 -3.86664
RightFoot  -16.9947 0.0963888 4.28346
RightToes  -1.33073e-015 0 -3.6325e-017
Spine  18.1502 -0.979675 -1.40976
Spine1  3.58568 -1.33015 0.569577
HEad  -12.8922 -16.1399 18.9598
LeftShoulder1  2.21206 -6.15973 -16.9441
LeftArm  -2.30694 -14.0772 -54.2176
LeftForeArm  30.8404 5.32164 -12.1525
LeftHand  -0.0567863 4.32821 4.03623
RightShoulder  2.24449 4.24349 23.6335
RightArm  -28.5217 20.1296 57.5873
RightForeArm  68.6817 -4.58744 -1.02083
RightHand  -0.321731 -3.55507 -19.8266
LeftUpLeg  -19.0138 6.52067 15.4992
LeftLeg  12.9385 15.4942 6.21512
LeftFoot  -4.67137 0.54307 -8.82768
LeftToes  2.72522e-012 8.43823e-011 6.24977e-012
3194
root  -3.28079 38.3319 89.5378 -171.763 -16.7342 178.615
RightUpLeg  -19.8854 -7.80763 1.19206
RightLeg  26.2636 -5.94354 -3.40768
RightFoot  -16.5143 0.0468539 3.51331
RightToes  -1.33073e-015 0 -3.6325e-017
Spine  17.267 -0.968807 -0.173425
Spine1  3.81802 -1.20339 0.553103
HEad  -11.6431 -15.1169 17.4571
LeftShoulder1  2.17376 -5.95504 -17.0561
LeftArm  -1.6844 -15.2402 -56.0718
LeftForeArm  32.4156 3.67623 -12.1662
LeftHand  -0.0677121 3.80777 3.6755
RightShoulder  2.21101 4.10571 23.7377
RightArm  -28.197 20.2734 57.3143
RightForeArm  69.199 -4.60311 -0.814509
RightHand  -0.279167 -3.82115 -20.0187
LeftUpLeg  -19.1244 3.03832 15.1468
LeftLeg  15.8292 11.7861 4.5795
LeftFoot  -4.06932 0.572349 -8.6126
LeftToes  2.72522e-012 8.43823e-011 6.24977e-012
3195
root  -2.89487 38.5046 89.0597 -171.846 -14.44 178.12
RightUpLeg  -18.2539 -6.13476 1.26501
RightLeg  24.2523 -5.61456 -2.9813
RightFoot  -16.2359 -0.00264633 2.5106
RightToes  -1.33073e-015 0 -3.6325e-017
Spine  16.3939 -0.987786 0.558115
Spine1  3.8306 -1.11913 0.34929
HEad  -10.6508 -14.2423 15.8622
LeftShoulder1  2.11947 -5.76592 -16.9372
LeftArm  -1.44997 -16.0433 -58.0454
LeftForeArm  33.253 1.52222 -12.0226
LeftHand  -0.0780613 3.48119 3.77995
RightShoulder  2.2192 4.17246 23.573
RightArm  -28.0514 20.0391 56.9353
RightForeArm  69.2048 -4.63266 -0.641094
RightHand  -0.238505 -4.05382 -19.9446
LeftUpLeg  -20.0024 0.647381 13.3846
LeftLeg  18.0753 8.66755 3.47457
LeftFoot  -3.89368 0.583622 -8.59812
LeftToes  2.72522e-012 8.43823e-011 6.24977e-012
3196
root  -2.53624 38.6455 88.5464 -172 -12.6821 177.697
RightUpLeg  -16.506 -5.52524 1.41772
RightLeg  22.3247 -4.72989 -2.35244
RightFoot  -16.0437 -0.0417181 1.62927
RightToes  -1.33073e-015 0 -3.6325e-017
Spine  15.5891 -1.06324 1.52236
Spine1  3.81758 -1.04901 -0.0150868
HEad  -10.0285 -13.3478 14.544
LeftShoulder1  2.08219 -5.64448 -16.8288
LeftArm  -1.42591 -16.723 -59.9463
LeftForeArm  33.5686 -0.611308 -11.8264
LeftHand  -0.0893111 3.33253 4.20176
RightShoulder  2.2104 4.15934 23.503
RightArm  -28.0859 19.5404 56.3693
RightForeArm  68.7466 -4.67254 -0.511161
RightHand  -0.255884 -3.94539 -19.8517
LeftUpLeg  -21.474 -3.00828 11.1727
LeftLeg  19.6778 9.44859 4.05206
LeftFoot  -3.56399 0.601285 -8.5214
LeftToes  2.72522e-012 8.43823e-011 6.24977e-012
